<svg id="Calque_1" data-name="Calque 1" xmlns="http://www.w3.org/2000/svg" viewBox="0 0 483 218"><title>GoingCamping</title><rect x="-64" y="-98" width="600" height="400" style="fill:#d8d8d8;fill-opacity:0"/><path d="M95,73.5h19a14.39,14.39,0,0,1,5.41-13.62,13.58,13.58,0,0,1,14-1.75,12.93,12.93,0,0,1,7.15,7A22.16,22.16,0,0,1,142,69" style="fill:none;stroke:#c2e8ff;stroke-linecap:round;stroke-width:3px"/><path d="M134,76.5a10,10,0,0,1,6.5-7.17,10.86,10.86,0,0,1,11.44,2.82,12,12,0,0,1,2.8,6A19.9,19.9,0,0,1,155,82.5q6.21-.25,8.33,2.5a7.39,7.39,0,0,1,1.26,6.75A6.87,6.87,0,0,1,158,96.5H79" style="fill:none;stroke:#c2e8ff;stroke-linecap:round;stroke-width:3px"/><path d="M69,83.5h65" style="fill:none;stroke:#c2e8ff;stroke-linecap:round;stroke-width:3px"/><path d="M51,83.5h8" style="fill:none;stroke:#c2e8ff;stroke-linecap:round;stroke-width:3px"/><path d="M361,104.5h19a14.39,14.39,0,0,1,5.41-13.62,13.58,13.58,0,0,1,14-1.75,12.93,12.93,0,0,1,7.15,7A22.16,22.16,0,0,1,408,100" style="fill:none;stroke:#c2e8ff;stroke-linecap:round;stroke-width:3px"/><path d="M400,107.5a10,10,0,0,1,6.5-7.17,10.86,10.86,0,0,1,11.44,2.82,12,12,0,0,1,2.8,6,19.9,19.9,0,0,1,.25,4.38q6.21-.25,8.33,2.5a7.39,7.39,0,0,1,1.26,6.75A6.87,6.87,0,0,1,424,127.5H345" style="fill:none;stroke:#c2e8ff;stroke-linecap:round;stroke-width:3px"/><path d="M335,114.5h65" style="fill:none;stroke:#c2e8ff;stroke-linecap:round;stroke-width:3px"/><path d="M317,114.5h8" style="fill:none;stroke:#c2e8ff;stroke-linecap:round;stroke-width:3px"/><polyline points="302 186 205.5 89 134.5 158" style="fill:none;stroke:#c2e8ff;stroke-linecap:round;stroke-linejoin:round;stroke-width:3px"/><polyline points="157 135 134.5 114 61 188" style="fill:none;stroke:#c2e8ff;stroke-linecap:round;stroke-linejoin:round;stroke-width:3px"/><path d="M152.92,116,159,136l-4.63-3-7-5.76L151,116a1,1,0,0,1,1.91,0Z" style="fill:#c2e8ff"/><path d="M143,199a17.79,17.79,0,0,0-16.33-11,17.41,17.41,0,0,0-5.76,1,18.92,18.92,0,0,0-31.53-.68,9.28,9.28,0,0,0-8.94-.29,23.25,23.25,0,0,0-42.73-2.13,17.39,17.39,0,0,0-7.55-1.72A17.91,17.91,0,0,0,12.65,199Z" style="fill:#c2e8ff"/><path d="M2,197.5H132" style="fill:none;stroke:#c2e8ff;stroke-linecap:round;stroke-width:3px"/><path d="M452.72,199H287.39q-.1-1.1-.1-2.24a24.27,24.27,0,0,1,24.09-24.44,23.72,23.72,0,0,1,10.23,2.3,31.59,31.59,0,0,1,57.87,2.86,12.66,12.66,0,0,1,12.1.39,25.83,25.83,0,0,1,46.55,10.63,12.72,12.72,0,0,1,2-.16A12.85,12.85,0,0,1,452.72,199Z" style="fill:#c2e8ff"/><path d="M320,197.5H461" style="fill:none;stroke:#c2e8ff;stroke-linecap:round;stroke-width:3px"/><path d="M467,197.5h14" style="fill:none;stroke:#c2e8ff;stroke-linecap:round;stroke-width:3px"/><path d="M425.42,137.45l14.34,49.49a2,2,0,0,1-1.92,2.56H409.16a2,2,0,0,1-1.92-2.56l14.34-49.49a2,2,0,0,1,3.84,0Z" style="fill:#c2e8ff"/><polygon points="423.5 135.82 440.5 189.5 406.5 189.5 423.5 135.82" style="fill:none;stroke:#8cd3f8;stroke-linecap:round;stroke-linejoin:round;stroke-width:3px"/><path d="M423.5,140.2v0Z" style="fill:none;stroke:#8cd3f8;stroke-linecap:round;stroke-width:3px"/><path d="M431.5,164.82q-8,9.69-8,10Q423.5,174.52,431.5,164.82Z" style="fill:none;stroke:#8cd3f8;stroke-linecap:round;stroke-linejoin:round;stroke-width:3px"/><path d="M390.65,102.5l25.23,84.43A2,2,0,0,1,414,189.5H367.33a2,2,0,0,1-1.92-2.57Z" style="fill:#c2e8ff"/><polygon points="390.5 102.5 416.5 189.5 364.5 189.5 390.5 102.5" style="fill:none;stroke:#8cd3f8;stroke-linecap:round;stroke-linejoin:round;stroke-width:3px"/><path d="M390.5,106.09v0Z" style="fill:none;stroke:#8cd3f8;stroke-linecap:round;stroke-width:3px"/><path d="M379.65,144.5q11,10.62,11,11Q390.65,155.12,379.65,144.5Z" style="fill:none;stroke:#8cd3f8;stroke-linecap:round;stroke-linejoin:round;stroke-width:3px"/><path d="M391.65,170.5q14-16.38,14-16Q405.65,154.12,391.65,170.5Z" style="fill:none;stroke:#8cd3f8;stroke-linecap:round;stroke-linejoin:round;stroke-width:3px"/><path d="M78.42,138.45l14.34,49.49a2,2,0,0,1-1.92,2.56H62.16a2,2,0,0,1-1.92-2.56l14.34-49.49a2,2,0,0,1,3.84,0Z" style="fill:#c2e8ff"/><polygon points="76.5 136.82 93.5 190.5 59.5 190.5 76.5 136.82" style="fill:none;stroke:#8cd3f8;stroke-linecap:round;stroke-linejoin:round;stroke-width:3px"/><path d="M76.5,140.82v0Z" style="fill:none;stroke:#8cd3f8;stroke-width:3px"/><path d="M86.5,168.82q-10,10.69-10,11Q76.5,179.52,86.5,168.82Z" style="fill:none;stroke:#8cd3f8;stroke-linecap:round;stroke-linejoin:round;stroke-width:3px"/><circle cx="286" cy="47" r="23" style="fill:#c2e8ff"/><circle cx="286" cy="47" r="45" transform="translate(36.7 194.83) rotate(-40)" style="fill:none;stroke:#c2e8ff;stroke-linecap:round;stroke-linejoin:round;stroke-width:3px;stroke-dasharray:135,1,1,18"/><circle cx="286" cy="47" r="33" transform="translate(14.82 149.3) rotate(-30)" style="fill:none;stroke:#c2e8ff;stroke-linecap:round;stroke-linejoin:round;stroke-width:3px;stroke-dasharray:107,10"/><circle cx="286" cy="47" r="23" style="fill:none;stroke:#8cd3f8;stroke-width:3px"/><circle cx="179" cy="157.5" r="12" style="fill:#fff"/><circle cx="207" cy="157.5" r="12" style="fill:#fff"/><path d="M211,135.5l-8,18" style="fill:none;stroke:#8cd3f8;stroke-linecap:round;stroke-linejoin:round;stroke-width:3px"/><circle cx="179" cy="157.5" r="11" style="fill:none;stroke:#8cd3f8;stroke-width:3px"/><circle cx="207" cy="157.5" r="11" style="fill:none;stroke:#8cd3f8;stroke-width:3px"/><polyline points="179.58 134.5 188 134.5 179 157.5" style="fill:none;stroke:#8cd3f8;stroke-linecap:round;stroke-linejoin:round;stroke-width:3px"/><polyline points="207 140.5 187 140.5 207 157.5" style="fill:none;stroke:#8cd3f8;stroke-linecap:round;stroke-linejoin:round;stroke-width:3px"/><path d="M153.92,183.82l11.15-15.23L217,168q2.67-.2,3.34.83t.94,8v7.69Z" style="fill:#c2e8ff"/><path d="M137.69,184.25a15.31,15.31,0,0,0-3.63,3.56,12.72,12.72,0,0,0-1.23,4.6l.38,10.85q88.14,1.1,88.14.55T220.55,184Z" style="fill:#fff"/><circle cx="205" cy="205" r="11" style="fill:#fff"/><circle cx="151" cy="205" r="11" style="fill:#fff"/><path d="M132.5,203.5V192c0-3.57,2.16-7.5,9.45-7.5h11.93l7.47-11.81A9,9,0,0,1,169,168.5H215.5a6,6,0,0,1,6,6v29h-5.6a11,11,0,1,1-21.8,0H161.9a11,11,0,1,1-21.8,0Z" style="fill:none;stroke:#8cd3f8;stroke-linecap:round;stroke-linejoin:round;stroke-width:3px"/><circle cx="205" cy="205" r="11" style="fill:none;stroke:#8cd3f8;stroke-linecap:round;stroke-linejoin:round;stroke-width:3px"/><circle cx="151" cy="205" r="11" style="fill:none;stroke:#8cd3f8;stroke-linecap:round;stroke-linejoin:round;stroke-width:3px"/><path d="M128,203.5h12" style="fill:none;stroke:#8cd3f8;stroke-linecap:round;stroke-width:3px"/><path d="M227.5,179v15" style="fill:none;stroke:#8cd3f8;stroke-linecap:round;stroke-width:3px"/><path d="M186.5,170v13" style="fill:none;stroke:#8cd3f8;stroke-linecap:round;stroke-width:3px"/><polyline points="154 184.5 162.75 184.5 220.5 184.5" style="fill:none;stroke:#8cd3f8;stroke-linecap:round;stroke-width:3px"/><path d="M245,150l-1.83,8.8v26.79h65.75L306,190.95h32.8l-.59-25.13-5.8-12L318.63,147q-24.62-.63-45.81-.63T245,150Z" style="fill:#c2e8ff"/><rect x="270.5" y="136.5" width="27" height="10" rx="2" ry="2" style="fill:#c2e8ff"/><polygon points="242.63 186.32 309.16 186.32 306.19 190.95 338.69 191.98 335.15 200.2 326.76 203.21 253.07 203.85 242.63 203.21 242.63 186.32" style="fill:#fff"/><circle cx="308" cy="205" r="11" style="fill:#fff"/><path d="M243.53,156.82q5.09-6.75,10.33-6.79t61.38,0q14.77.94,22.09,15.29t-3.16-10.14q-5.53-5.36-5.72-5.5t-10.79-3.74H253.54l-6.68,2.17-3.33,3.72Z" style="fill:#fff"/><path d="M326.5,203.5a12,12,0,0,0,12-12v-21a24,24,0,0,0-24-24h-60a12,12,0,0,0-12,12v45h54.6a11,11,0,1,0,21.8,0Z" style="fill:none;stroke:#8cd3f8;stroke-linecap:round;stroke-linejoin:round;stroke-width:3px"/><path d="M272.5,136.5h23a2,2,0,0,1,2,2v8h-27v-8A2,2,0,0,1,272.5,136.5Z" style="fill:none;stroke:#8cd3f8;stroke-width:3px"/><rect x="256.5" y="160.5" width="24" height="43" rx="1" ry="1" style="fill:none;stroke:#8cd3f8;stroke-width:3px"/><rect x="293.5" y="160.5" width="30" height="15" rx="1" ry="1" style="fill:none;stroke:#8cd3f8;stroke-width:3px"/><polyline points="243 185.5 309.5 185.5 304.99 191.5 338.5 191.5" style="fill:none;stroke:#8cd3f8;stroke-width:3px"/><path d="M323,203.5H218" style="fill:none;stroke:#8cd3f8;stroke-width:3px"/></svg>